<svg id="Shopping_cart" data-name="Shopping cart" xmlns="http://www.w3.org/2000/svg" width="45" height="45" viewBox="0 0 45 45">
  <metadata><?xpacket begin="﻿" id="W5M0MpCehiHzreSzNTczkc9d"?>
<x:xmpmeta xmlns:x="adobe:ns:meta/" x:xmptk="Adobe XMP Core 5.6-c138 79.159824, 2016/09/14-01:09:01        ">
   <rdf:RDF xmlns:rdf="http://www.w3.org/1999/02/22-rdf-syntax-ns#">
      <rdf:Description rdf:about=""/>
   </rdf:RDF>
</x:xmpmeta>
                                                                                                    
                                                                                                    
                                                                                                    
                                                                                                    
                                                                                                    
                                                                                                    
                                                                                                    
                                                                                                    
                                                                                                    
                                                                                                    
                                                                                                    
                                                                                                    
                                                                                                    
                                                                                                    
                                                                                                    
                                                                                                    
                                                                                                    
                                                                                                    
                                                                                                    
                                                                                                    
                           
<?xpacket end="w"?></metadata>
<defs>
    <style>
      .cls-1, .cls-2 {
        fill: none;
      }

      .cls-1, .cls-2, .cls-4 {
        stroke: #555963;
        stroke-width: 2px;
      }

      .cls-1 {
        stroke-linejoin: round;
      }

      .cls-2, .cls-3, .cls-4 {
        fill-rule: evenodd;
      }

      .cls-3, .cls-4 {
        fill: #555963;
      }
    </style>
  </defs>
  <circle id="Ellipse_2_copy_2" data-name="Ellipse 2 copy 2" class="cls-1" cx="22.5" cy="22.5" r="19.5"/>
  <path class="cls-2" d="M894,2217v4" transform="translate(-869 -2204)"/>
  <path class="cls-3" d="M891,2220l2,2,2-2h-4Z" transform="translate(-869 -2204)"/>
  <path class="cls-4" d="M898.474,2228H885.842a0.786,0.786,0,0,1-.842-0.82v-7.36a0.786,0.786,0,0,1,.842-0.82h14.316a0.766,0.766,0,0,1,.674.33,0.856,0.856,0,0,1,.168.65l-1.684,7.37a0.81,0.81,0,0,1-.842.65h0Zm-0.324-2,1.85-7H887v7h11.15Zm-11.95-5h-2.4a1.025,1.025,0,0,1,0-2h2.4a1.025,1.025,0,0,1,0,2h0Zm-0.2,0a0.99,0.99,0,0,1-.7-1.7,0.967,0.967,0,0,1,1.4,0,1,1,0,0,1-.7,1.7h0Zm1.5,12a1.5,1.5,0,1,1-1.5,1.5A1.5,1.5,0,0,1,887.5,2233Zm9,0a1.5,1.5,0,1,1-1.5,1.5A1.5,1.5,0,0,1,896.5,2233Zm-10.5-1a0.874,0.874,0,0,1-1-.83v-3.34a1.017,1.017,0,0,1,2,0v3.34a0.874,0.874,0,0,1-1,.83h0Zm12.177,0H885.824a1.019,1.019,0,0,1,0-2h12.353a1.019,1.019,0,0,1,0,2h0ZM891,2220.02l1.491,1.98,1.509-2m-1,1v-4" transform="translate(-869 -2204)"/>
</svg>
