<svg width="57" height="57" xmlns="http://www.w3.org/2000/svg"><g transform="translate(1 1)" fill="none" fill-rule="evenodd"><circle stroke="#545963" stroke-width="2" cx="27.5" cy="27.5" r="27.5"/><path d="M21 36c-2.8 0-5-2.2-5-5s2.2-5 5-5 5 2.2 5 5-2.2 5-5 5zm0-8c-1.7 0-3 1.3-3 3s1.3 3 3 3 3-1.3 3-3-1.3-3-3-3zm14 8c-2.8 0-5-2.2-5-5s2.2-5 5-5 5 2.2 5 5-2.2 5-5 5zm0-8c-1.7 0-3 1.3-3 3s1.3 3 3 3 3-1.3 3-3-1.3-3-3-3z" fill="#545963"/><path d="M31.1 31.4c-.3 0-.6-.1-.8-.4-.6-.6-1.4-1-2.3-1-.9 0-1.7.4-2.3 1.1-.4.4-1 .5-1.4.1-.4-.4-.5-1-.1-1.4 1-1.1 2.3-1.8 3.8-1.8s2.9.6 3.8 1.8c.4.4.3 1.1-.1 1.4-.2.1-.4.2-.6.2zM17 32c-.6 0-1-.4-1-1 0-3.9.4-13 4-13 2.2 0 3 1.8 3 3 0 .6-.4 1-1 1s-1-.4-1-1c0-.5-.2-1-1-1-.9 0-2 5.1-2 11 0 .6-.4 1-1 1zm22 0c-.6 0-1-.4-1-1 0-7.6-1.4-11-2-11-.8 0-1 .6-1 1 0 .5-.5 1-1 1s-1-.4-1-1c0-1.2.8-3 3-3 3.6 0 4 9.1 4 13 0 .6-.4 1-1 1z" fill="#545963"/></g></svg>