<svg width="21" height="21" xmlns="http://www.w3.org/2000/svg"><g fill-rule="evenodd"><path d="M17.065 17.752a.433.433 0 0 1-.233-.067c-.334-.211-3.264-2.116-3.234-4.011.01-.59.287-1.098.83-1.515-.488-.914-1.568-3.204-.87-4.423.153-.269.445-.578.992-.708-.283-1.155-.57-3.935 2.224-6.43a.438.438 0 0 1 .582 0c2.794 2.495 2.508 5.275 2.225 6.43.547.13.838.44.993.709.696 1.219-.383 3.509-.871 4.423.54.417.82.924.829 1.514.03 1.895-2.9 3.8-3.234 4.01a.434.434 0 0 1-.233.068zm0-16.228c-2.777 2.74-1.555 5.674-1.542 5.705a.438.438 0 0 1-.401.611c-.616 0-.759.25-.805.33-.44.772.42 2.805 1.066 3.906a.438.438 0 0 1-.156.598c-.501.295-.748.626-.754 1.013-.017 1.09 1.691 2.487 2.592 3.104.9-.617 2.61-2.014 2.592-3.104-.006-.386-.252-.717-.754-1.012a.438.438 0 0 1-.155-.598c.646-1.102 1.506-3.136 1.065-3.906-.046-.082-.188-.33-.805-.331a.438.438 0 0 1-.401-.61c.053-.124 1.22-2.985-1.542-5.706z"/><path d="M17.065 20.982a.437.437 0 0 1-.437-.437v-3.23a.437.437 0 1 1 .875 0v3.23a.437.437 0 0 1-.438.437zm0-6.16a.437.437 0 0 1-.437-.437V8.327a.437.437 0 1 1 .875 0v6.057a.437.437 0 0 1-.438.438zM11.704 21H.497a.437.437 0 0 1-.438-.438c0-2.732 1.706-5.108 3.465-6.148v-.851a.434.434 0 0 0-.429-.438.437.437 0 0 1-.437-.438v-2.624c0-.242.196-.438.437-.438h6.01c.243 0 .438.196.438.438v2.624a.437.437 0 0 1-.437.438.434.434 0 0 0-.429.438v.851c1.759 1.04 3.465 3.416 3.465 6.149a.437.437 0 0 1-.438.437zM.951 20.125H11.25c-.18-2.299-1.739-4.297-3.212-5.065a.437.437 0 0 1-.235-.388v-1.11c0-.569.362-1.055.866-1.236V10.5H3.533v1.826c.505.181.866.667.866 1.236v1.11c0 .163-.09.312-.235.388-1.473.768-3.033 2.766-3.213 5.065z"/></g></svg>