<svg width="39" height="39" xmlns="http://www.w3.org/2000/svg"><g fill="none" fill-rule="evenodd"><circle fill="#545963" cx="19.5" cy="19.5" r="19.5"/><path d="M26.222 11H13.778C12.8 11 12 11.8 12 12.778v12.444c0 .979.8 1.778 1.778 1.778h12.444C27.2 27 28 26.2 28 25.222V12.778C28 11.8 27.2 11 26.222 11zm-6.236 12.91a4.923 4.923 0 0 0 4.922-4.924c0-.3-.038-.59-.091-.875h1.405v6.414c0 .34-.275.614-.616.614H14.394a.614.614 0 0 1-.616-.614v-6.414h1.377a4.648 4.648 0 0 0-.093.875 4.924 4.924 0 0 0 4.924 4.923zm-3.077-4.924a3.077 3.077 0 1 1 6.154 0 3.077 3.077 0 0 1-6.154 0zm8.697-3.542h-1.435a.616.616 0 0 1-.615-.615v-1.437c0-.34.275-.614.614-.614h1.435c.342 0 .617.274.617.614v1.436a.617.617 0 0 1-.616.616z" fill="#F5FDFF"/></g></svg>