<svg width="213" height="56" xmlns="http://www.w3.org/2000/svg"><g fill="none" fill-rule="evenodd"><text font-family=".SFNSDisplay-Regular, .SF NS Display" font-size="29" letter-spacing=".2" fill="#45474B" transform="translate(0 1)"><tspan x="59" y="34">Bookwor</tspan> <tspan x="173.54" y="34">m</tspan></text><text font-family=".AppleSystemUIFont" font-size="11" fill="#45474B" transform="translate(0 1)"><tspan x="123" y="14">All abot literature</tspan></text><g transform="translate(0 1)"><circle fill="#45474B" cx="22" cy="33" r="22"/><path d="M20.111 42.926c-1.29-.816-1.072-2.957-1.072-2.957V9.698c.056.69.252 1.553.878 1.984 1.438.99 5.197.935 5.309.934L44.06 1.986V33.06L25.226 43.678c-.112-.056-3.692.147-5.115-.752zM19.039 8.697v1.001c-.044-.555 0-1.001 0-1.001z" fill="#FFF"/><path d="M43 3.014l-17.748 9.967s-2.525.342-4.258-.238c-1.375-.461-.89-2.324-.89-2.324L38.264 0" stroke="#44474A" stroke-width="2" fill="#FFF"/><path d="M43 2.258v33.51" stroke="#44474A" stroke-width="2"/></g><path d="M208.972 46.008H60.932" stroke="#45474B" stroke-width="2"/></g></svg>