<svg width="39" height="39" xmlns="http://www.w3.org/2000/svg"><g fill="none" fill-rule="evenodd"><circle fill="#545963" cx="19.5" cy="19.5" r="19.5"/><path d="M17.996 22.4c-.493 2.583-1.094 5.058-2.876 6.35-.55-3.901.807-6.831 1.438-9.942-1.075-1.81.13-5.449 2.396-4.551 2.789 1.102-2.415 6.723 1.078 7.427 3.648.732 5.136-6.329 2.874-8.625-3.267-3.316-9.512-.077-8.743 4.671.187 1.16 1.386 1.512.48 3.114-2.092-.463-2.717-2.113-2.636-4.312.13-3.6 3.233-6.12 6.348-6.469 3.938-.441 7.635 1.447 8.146 5.15.574 4.183-1.778 8.713-5.99 8.387-1.142-.09-1.62-.656-2.515-1.2z" fill="#F5FDFF"/></g></svg>